# xmcd
#
# Track frame offsets:
#	150
#	15872
#	34782
#	54764
#	72130
#	86347
#	105490
#	122775
#	142152
#	157414
#	175678
#
# Disc length: 2669 seconds
#
# Revision: 1
# Processed by: cddbd v1.5.2PL0 Copyright (c) Steve Scherf et al.
# Submitted via: audiograbber 1.83.01
#
DISCID=860a6b0b
DTITLE=Annalise Emerick - Field Notes
DYEAR=2014
DGENRE=
TTITLE0=The Sun And The Moon
TTITLE1=Boston
TTITLE2=A Good One
TTITLE3=Sidewalk Chalk
TTITLE4=Born This Way
TTITLE5=The Simple Life
TTITLE6=Home
TTITLE7=Twinkling Lights
TTITLE8=Deep In The West
TTITLE9=Patti Smith
TTITLE10=Somewhere In Between
EXTD=
EXTT0=
EXTT1=
EXTT2=
EXTT3=
EXTT4=
EXTT5=
EXTT6=
EXTT7=
EXTT8=
EXTT9=
EXTT10=
PLAYORDER=
